<svg width="256" height="256" viewBox="0 0 256 256" fill="none" xmlns="http://www.w3.org/2000/svg">
  <defs>
    <linearGradient id="bg" x1="20" y1="20" x2="236" y2="236" gradientUnits="userSpaceOnUse">
      <stop stop-color="#13293D"/>
      <stop offset="0.5" stop-color="#1B6FEF"/>
      <stop offset="1" stop-color="#4DA8FF"/>
    </linearGradient>
    <linearGradient id="node-fill" x1="80" y1="70" x2="176" y2="190" gradientUnits="userSpaceOnUse">
      <stop stop-color="#FFFFFF"/>
      <stop offset="1" stop-color="#D0E8FF"/>
    </linearGradient>
  </defs>

  <!-- 배경 -->
  <rect x="20" y="20" width="216" height="216" rx="48" fill="url(#bg)"/>

  <!-- 연결선 (노드 뒤) -->
  <line x1="96" y1="88" x2="160" y2="88" stroke="rgba(255,255,255,0.35)" stroke-width="3" stroke-linecap="round"/>
  <line x1="96" y1="88" x2="128" y2="160" stroke="rgba(255,255,255,0.35)" stroke-width="3" stroke-linecap="round"/>
  <line x1="160" y1="88" x2="128" y2="160" stroke="rgba(255,255,255,0.35)" stroke-width="3" stroke-linecap="round"/>

  <!-- 노드1: 좌상 -->
  <circle cx="96" cy="88" r="22" fill="url(#node-fill)" fill-opacity="0.92"/>
  <circle cx="96" cy="88" r="10" fill="#1B6FEF"/>

  <!-- 노드2: 우상 -->
  <circle cx="160" cy="88" r="22" fill="url(#node-fill)" fill-opacity="0.92"/>
  <circle cx="160" cy="88" r="10" fill="#1B6FEF"/>

  <!-- 노드3: 중하 (메인 허브, 더 큼) -->
  <circle cx="128" cy="160" r="28" fill="url(#node-fill)" fill-opacity="0.95"/>
  <circle cx="128" cy="160" r="14" fill="#1B6FEF"/>

  <!-- 스파크 장식 (우하단, AI 느낌) -->
  <g transform="translate(188, 182)" opacity="0.85">
    <path d="M0 -8L2.5 -2.5L8 0L2.5 2.5L0 8L-2.5 2.5L-8 0L-2.5 -2.5Z" fill="white"/>
  </g>
  <g transform="translate(200, 168)" opacity="0.55">
    <path d="M0 -5L1.5 -1.5L5 0L1.5 1.5L0 5L-1.5 1.5L-5 0L-1.5 -1.5Z" fill="white"/>
  </g>
</svg>
